# xmcd
#
# Track frame offsets: 
#        150
#        10289
#        22844
#        35126
#        43608
#        56173
#        64530
#        75971
#        85787
#        95708
#        105662
#        115964
#        126932
#        136051
#        145578
#        157701
#
# Disc length: 2234 seconds
#
# Revision: 2
# Processed by: cddbd v1.5.2PL0 Copyright (c) Steve Scherf et al.
# Submitted via: ExactAudioCopy v0.95b4
#
DISCID=c308b810
DTITLE=Johnny Cash - I Walk the Line
DYEAR=1999
DGENRE=Country
TTITLE0=Get Rhythm
TTITLE1=Give My Love to Rose
TTITLE2=I Walk the Line
TTITLE3=Country Boy
TTITLE4=Folsom Prison Blues
TTITLE5=Guess Things Happen That Way
TTITLE6=Big River
TTITLE7=Rock Island Line
TTITLE8=Ballad of a Teenage Queen
TTITLE9=Hey Porter
TTITLE10=The Ways of a Woman in Love
TTITLE11=Cry! Cry! Cry!
TTITLE12=Blue Train
TTITLE13=I Forgot to Remember to Forget
TTITLE14=You're the Nearest Thing to Heaven
TTITLE15=I Could Never be Ashamed of You
EXTD=
EXTT0=
EXTT1=
EXTT2=
EXTT3=
EXTT4=
EXTT5=
EXTT6=
EXTT7=
EXTT8=
EXTT9=
EXTT10=
EXTT11=
EXTT12=
EXTT13=
EXTT14=
EXTT15=
PLAYORDER=
